<svg viewBox="0 0 3099 740" version="1" xmlns="http://www.w3.org/2000/svg">
  <g fill="none" fill-rule="evenodd">
    <path d="M321 0l320 185v370L321 740 1 555V185z" fill="#F4D35E"/>
    <path d="M321 0l321 185-321 185L1 185 321 0zm160 648L321 370l321-185-161 463z" fill="#EE964B"/>
    <path d="M161 278L1 555l320 185-160-462z" fill="#28AFB0"/>
    <g fill="#fff">
      <path d="M1235 142h85c45 0 80 9 103 27 24 19 36 45 36 79a100 100 0 0 1-56 90c30 10 53 24 68 44 15 19 23 42 23 68 0 36-13 66-39 89s-60 35-101 35h-119V142zm42 42v139h25c38 0 66-7 84-19 19-12 28-30 28-56 0-43-29-64-87-64h-50zm0 182v166h54c31 0 54-3 68-9 15-6 27-16 36-29s14-27 14-40c0-14-3-26-8-36-5-11-13-20-23-28s-23-14-37-18-41-6-80-6h-24zm283-6a230 230 0 0 1 113-199 232 232 0 0 1 313 82c20 35 30 74 30 115a227 227 0 0 1-342 197 222 222 0 0 1-114-195zm411-2c0-52-18-96-54-131-36-36-79-54-129-54a182 182 0 0 0-182 185c0 52 17 96 53 131 36 36 79 54 130 54 50 0 93-18 129-52 36-35 53-80 53-133zm99-216h47l143 345 146-345h47l-188 443h-9l-186-443zM766 579h47l143-346 146 346h47L961 135h-9L766 579zm1753-437h44v432h-44V142zm506 385l64 82h-53l-44-56c-36 21-75 32-117 32a226 226 0 0 1-231-225 224 224 0 0 1 227-229 227 227 0 0 1 198 113c20 35 30 73 30 114 0 66-25 123-74 169zm-27-33c38-37 56-82 56-135 0-52-18-97-54-132-36-36-79-54-129-54-51 0-93 18-129 54-35 36-53 81-53 133 0 53 18 96 54 131s79 52 129 52c33 0 64-8 93-25l-97-122h53l77 98z"/>
    </g>
  </g>
</svg>
